<mxfile host="Electron" modified="2023-12-09T11:35:04.222Z" agent="Mozilla/5.0 (X11; Linux x86_64) AppleWebKit/537.36 (KHTML, like Gecko) draw.io/22.1.2 Chrome/114.0.5735.289 Electron/25.9.4 Safari/537.36" etag="kITY9uhyHMi7xh1C0kqC" version="22.1.2" type="device">
  <diagram name="Page-1" id="u0IGJlr-Aw_E8EnV0NZy">
    <mxGraphModel dx="683" dy="419" grid="1" gridSize="10" guides="1" tooltips="1" connect="1" arrows="1" fold="1" page="1" pageScale="1" pageWidth="827" pageHeight="1169" math="0" shadow="0">
      <root>
        <mxCell id="0" />
        <mxCell id="1" parent="0" />
        <mxCell id="Px296QvXQHkf13FRtcw--1" value="" style="rounded=0;whiteSpace=wrap;html=1;fillColor=#d5e8d4;strokeColor=#82b366;" vertex="1" parent="1">
          <mxGeometry x="80" y="40" width="40" height="20" as="geometry" />
        </mxCell>
        <mxCell id="Px296QvXQHkf13FRtcw--3" value="transform: +2" style="rounded=0;whiteSpace=wrap;html=1;fillColor=#f8cecc;strokeColor=#b85450;" vertex="1" parent="1">
          <mxGeometry x="40" y="80" width="120" height="20" as="geometry" />
        </mxCell>
        <mxCell id="Px296QvXQHkf13FRtcw--4" value="10" style="text;html=1;strokeColor=none;fillColor=none;align=center;verticalAlign=middle;whiteSpace=wrap;rounded=0;" vertex="1" parent="1">
          <mxGeometry x="20" y="70" width="40" height="10" as="geometry" />
        </mxCell>
        <mxCell id="Px296QvXQHkf13FRtcw--5" value="20" style="text;html=1;strokeColor=none;fillColor=none;align=center;verticalAlign=middle;whiteSpace=wrap;rounded=0;" vertex="1" parent="1">
          <mxGeometry x="60" y="30" width="40" height="10" as="geometry" />
        </mxCell>
        <mxCell id="Px296QvXQHkf13FRtcw--6" value="30" style="text;html=1;strokeColor=none;fillColor=none;align=center;verticalAlign=middle;whiteSpace=wrap;rounded=0;" vertex="1" parent="1">
          <mxGeometry x="100" y="30" width="40" height="10" as="geometry" />
        </mxCell>
        <mxCell id="Px296QvXQHkf13FRtcw--7" value="40" style="text;html=1;strokeColor=none;fillColor=none;align=center;verticalAlign=middle;whiteSpace=wrap;rounded=0;" vertex="1" parent="1">
          <mxGeometry x="140" y="70" width="40" height="10" as="geometry" />
        </mxCell>
        <mxCell id="Px296QvXQHkf13FRtcw--8" value="" style="rounded=0;whiteSpace=wrap;html=1;fillColor=#dae8fc;strokeColor=#6c8ebf;" vertex="1" parent="1">
          <mxGeometry x="90" y="130" width="40" height="20" as="geometry" />
        </mxCell>
        <mxCell id="Px296QvXQHkf13FRtcw--9" value="22" style="text;html=1;strokeColor=none;fillColor=none;align=center;verticalAlign=middle;whiteSpace=wrap;rounded=0;" vertex="1" parent="1">
          <mxGeometry x="70" y="120" width="40" height="10" as="geometry" />
        </mxCell>
        <mxCell id="Px296QvXQHkf13FRtcw--10" value="32" style="text;html=1;strokeColor=none;fillColor=none;align=center;verticalAlign=middle;whiteSpace=wrap;rounded=0;" vertex="1" parent="1">
          <mxGeometry x="110" y="120" width="40" height="10" as="geometry" />
        </mxCell>
        <mxCell id="Px296QvXQHkf13FRtcw--11" value="transform: -3" style="rounded=0;whiteSpace=wrap;html=1;fillColor=#f8cecc;strokeColor=#b85450;" vertex="1" parent="1">
          <mxGeometry x="20" y="180" width="90" height="20" as="geometry" />
        </mxCell>
        <mxCell id="Px296QvXQHkf13FRtcw--12" value="5" style="text;html=1;strokeColor=none;fillColor=none;align=center;verticalAlign=middle;whiteSpace=wrap;rounded=0;" vertex="1" parent="1">
          <mxGeometry y="170" width="40" height="10" as="geometry" />
        </mxCell>
        <mxCell id="Px296QvXQHkf13FRtcw--13" value="27" style="text;html=1;strokeColor=none;fillColor=none;align=center;verticalAlign=middle;whiteSpace=wrap;rounded=0;" vertex="1" parent="1">
          <mxGeometry x="90" y="170" width="40" height="10" as="geometry" />
        </mxCell>
        <mxCell id="Px296QvXQHkf13FRtcw--14" value="" style="rounded=0;whiteSpace=wrap;html=1;fillColor=#fff2cc;strokeColor=#d6b656;" vertex="1" parent="1">
          <mxGeometry x="60" y="220" width="20" height="20" as="geometry" />
        </mxCell>
        <mxCell id="Px296QvXQHkf13FRtcw--15" value="19" style="text;html=1;strokeColor=none;fillColor=none;align=center;verticalAlign=middle;whiteSpace=wrap;rounded=0;" vertex="1" parent="1">
          <mxGeometry x="40" y="210" width="40" height="10" as="geometry" />
        </mxCell>
        <mxCell id="Px296QvXQHkf13FRtcw--16" value="24" style="text;html=1;strokeColor=none;fillColor=none;align=center;verticalAlign=middle;whiteSpace=wrap;rounded=0;" vertex="1" parent="1">
          <mxGeometry x="60" y="210" width="40" height="10" as="geometry" />
        </mxCell>
        <mxCell id="Px296QvXQHkf13FRtcw--17" value="" style="rounded=0;whiteSpace=wrap;html=1;fillColor=#fff2cc;strokeColor=#d6b656;" vertex="1" parent="1">
          <mxGeometry x="110" y="220" width="20" height="20" as="geometry" />
        </mxCell>
        <mxCell id="Px296QvXQHkf13FRtcw--18" value="28" style="text;html=1;strokeColor=none;fillColor=none;align=center;verticalAlign=middle;whiteSpace=wrap;rounded=0;" vertex="1" parent="1">
          <mxGeometry x="90" y="210" width="40" height="10" as="geometry" />
        </mxCell>
        <mxCell id="Px296QvXQHkf13FRtcw--19" value="32" style="text;html=1;strokeColor=none;fillColor=none;align=center;verticalAlign=middle;whiteSpace=wrap;rounded=0;" vertex="1" parent="1">
          <mxGeometry x="110" y="210" width="40" height="10" as="geometry" />
        </mxCell>
        <mxCell id="Px296QvXQHkf13FRtcw--20" value="" style="endArrow=none;html=1;rounded=0;dashed=1;dashPattern=1 1;exitX=0.5;exitY=1;exitDx=0;exitDy=0;" edge="1" parent="1" source="Px296QvXQHkf13FRtcw--13">
          <mxGeometry width="50" height="50" relative="1" as="geometry">
            <mxPoint x="110" y="150" as="sourcePoint" />
            <mxPoint x="110" y="130" as="targetPoint" />
          </mxGeometry>
        </mxCell>
        <mxCell id="Px296QvXQHkf13FRtcw--28" style="edgeStyle=orthogonalEdgeStyle;rounded=0;orthogonalLoop=1;jettySize=auto;html=1;exitX=0;exitY=0.5;exitDx=0;exitDy=0;" edge="1" parent="1" source="Px296QvXQHkf13FRtcw--22" target="Px296QvXQHkf13FRtcw--1">
          <mxGeometry relative="1" as="geometry" />
        </mxCell>
        <mxCell id="Px296QvXQHkf13FRtcw--22" value="initial seed range" style="text;html=1;strokeColor=none;fillColor=none;align=left;verticalAlign=middle;whiteSpace=wrap;rounded=0;" vertex="1" parent="1">
          <mxGeometry x="220" y="35" width="100" height="30" as="geometry" />
        </mxCell>
        <mxCell id="Px296QvXQHkf13FRtcw--29" style="edgeStyle=orthogonalEdgeStyle;rounded=0;orthogonalLoop=1;jettySize=auto;html=1;exitX=0;exitY=0.5;exitDx=0;exitDy=0;entryX=1;entryY=0.5;entryDx=0;entryDy=0;" edge="1" parent="1" source="Px296QvXQHkf13FRtcw--23" target="Px296QvXQHkf13FRtcw--3">
          <mxGeometry relative="1" as="geometry" />
        </mxCell>
        <mxCell id="Px296QvXQHkf13FRtcw--23" value="seed-to-soil transformation" style="text;html=1;strokeColor=none;fillColor=none;align=left;verticalAlign=middle;whiteSpace=wrap;rounded=0;" vertex="1" parent="1">
          <mxGeometry x="220" y="75" width="160" height="30" as="geometry" />
        </mxCell>
        <mxCell id="Px296QvXQHkf13FRtcw--30" style="edgeStyle=orthogonalEdgeStyle;rounded=0;orthogonalLoop=1;jettySize=auto;html=1;exitX=0;exitY=0.5;exitDx=0;exitDy=0;entryX=1;entryY=0.5;entryDx=0;entryDy=0;" edge="1" parent="1" source="Px296QvXQHkf13FRtcw--24" target="Px296QvXQHkf13FRtcw--8">
          <mxGeometry relative="1" as="geometry" />
        </mxCell>
        <mxCell id="Px296QvXQHkf13FRtcw--24" value="soil range" style="text;html=1;strokeColor=none;fillColor=none;align=left;verticalAlign=middle;whiteSpace=wrap;rounded=0;" vertex="1" parent="1">
          <mxGeometry x="220" y="125" width="160" height="30" as="geometry" />
        </mxCell>
        <mxCell id="Px296QvXQHkf13FRtcw--33" style="edgeStyle=orthogonalEdgeStyle;rounded=0;orthogonalLoop=1;jettySize=auto;html=1;exitX=0;exitY=0.5;exitDx=0;exitDy=0;entryX=1;entryY=0.5;entryDx=0;entryDy=0;" edge="1" parent="1" source="Px296QvXQHkf13FRtcw--25" target="Px296QvXQHkf13FRtcw--11">
          <mxGeometry relative="1" as="geometry" />
        </mxCell>
        <mxCell id="Px296QvXQHkf13FRtcw--25" value="soil-to-fertilizer transformation" style="text;html=1;strokeColor=none;fillColor=none;align=left;verticalAlign=middle;whiteSpace=wrap;rounded=0;" vertex="1" parent="1">
          <mxGeometry x="220" y="175" width="180" height="30" as="geometry" />
        </mxCell>
        <mxCell id="Px296QvXQHkf13FRtcw--32" style="edgeStyle=orthogonalEdgeStyle;rounded=0;orthogonalLoop=1;jettySize=auto;html=1;exitX=0;exitY=0.5;exitDx=0;exitDy=0;entryX=1;entryY=0.5;entryDx=0;entryDy=0;" edge="1" parent="1" source="Px296QvXQHkf13FRtcw--26" target="Px296QvXQHkf13FRtcw--17">
          <mxGeometry relative="1" as="geometry" />
        </mxCell>
        <mxCell id="Px296QvXQHkf13FRtcw--26" value="fertilizer ranges" style="text;html=1;strokeColor=none;fillColor=none;align=left;verticalAlign=middle;whiteSpace=wrap;rounded=0;" vertex="1" parent="1">
          <mxGeometry x="220" y="215" width="160" height="30" as="geometry" />
        </mxCell>
      </root>
    </mxGraphModel>
  </diagram>
</mxfile>
